<svg width="608" height="350" viewBox="0 0 608 350" fill="none" xmlns="http://www.w3.org/2000/svg">
<g style="mix-blend-mode:luminosity" clip-path="url(#clip0_167_20)">
<path d="M79.4875 371.585C39.8664 371.585 13.2637 347.246 13.2637 311.587V311.21C13.2637 276.683 40.0551 255.552 87.0344 252.721L140.995 249.514V234.609C140.995 212.723 126.844 199.516 101.562 199.516C77.9781 199.516 63.4504 210.648 60.0543 226.496L59.677 228.194H21.1879L21.3766 226.119C24.2066 191.969 53.8281 165.744 102.694 165.744C151.183 165.744 181.936 191.403 181.936 231.213V368H140.995V336.68H140.24C128.731 358 105.713 371.585 79.4875 371.585ZM54.3941 310.644C54.3941 328.002 68.7332 338.945 90.6191 338.945C119.297 338.945 140.995 319.511 140.995 293.663V278.192L92.5059 281.211C67.9785 282.72 54.3941 293.475 54.3941 310.266V310.644ZM221.557 368V169.517H262.311V203.478H263.254C269.669 180.271 286.272 165.744 308.913 165.744C314.761 165.744 319.855 166.687 323.063 167.253V205.176C319.855 203.855 312.686 202.912 304.762 202.912C278.536 202.912 262.311 220.081 262.311 249.703V368H221.557ZM350.609 368V95.7465H391.362V254.231H392.305L471.925 169.517H519.848L438.341 255.174L523.055 368H475.698L408.343 279.702L391.362 296.493V368H350.609ZM565.506 138.952C552.299 138.952 541.734 128.387 541.734 115.557C541.734 102.539 552.299 91.973 565.506 91.973C578.902 91.973 589.279 102.539 589.279 115.557C589.279 128.387 578.902 138.952 565.506 138.952ZM545.13 368V169.517H585.883V368H545.13Z" fill="#0A0A0A" fill-opacity="0.03"/>
<mask id="mask0_167_20" style="mask-type:alpha" maskUnits="userSpaceOnUse" x="12" y="91" width="577" height="281">
<mask id="path-2-outside-1_167_20" maskUnits="userSpaceOnUse" x="11" y="90" width="579" height="283" fill="black">
<rect fill="white" x="11" y="90" width="579" height="283"/>
<path d="M78.4875 371.585C38.8664 371.585 12.2637 347.246 12.2637 311.587V311.21C12.2637 276.683 39.0551 255.552 86.0344 252.721L139.995 249.514V234.609C139.995 212.723 125.844 199.516 100.562 199.516C76.9781 199.516 62.4504 210.648 59.0543 226.496L58.677 228.194H20.1879L20.3766 226.119C23.2066 191.969 52.8281 165.744 101.694 165.744C150.183 165.744 180.936 191.403 180.936 231.213V368H139.995V336.68H139.24C127.731 358 104.713 371.585 78.4875 371.585ZM53.3941 310.644C53.3941 328.002 67.7332 338.945 89.6191 338.945C118.297 338.945 139.995 319.511 139.995 293.663V278.192L91.5059 281.211C66.9785 282.72 53.3941 293.475 53.3941 310.266V310.644ZM220.557 368V169.517H261.311V203.478H262.254C268.669 180.271 285.272 165.744 307.913 165.744C313.761 165.744 318.855 166.687 322.063 167.253V205.176C318.855 203.855 311.686 202.912 303.762 202.912C277.536 202.912 261.311 220.081 261.311 249.703V368H220.557ZM349.609 368V95.7465H390.362V254.231H391.305L470.925 169.517H518.848L437.341 255.174L522.055 368H474.698L407.343 279.702L390.362 296.493V368H349.609ZM564.506 138.952C551.299 138.952 540.734 128.387 540.734 115.557C540.734 102.539 551.299 91.973 564.506 91.973C577.902 91.973 588.279 102.539 588.279 115.557C588.279 128.387 577.902 138.952 564.506 138.952ZM544.13 368V169.517H584.883V368H544.13Z"/>
</mask>
<path d="M86.0344 252.721L85.975 251.723L85.9742 251.723L86.0344 252.721ZM139.995 249.514L140.054 250.512L140.995 250.456V249.514H139.995ZM59.0543 226.496L60.0305 226.713L60.0321 226.706L59.0543 226.496ZM58.677 228.194V229.194H59.4791L59.6531 228.411L58.677 228.194ZM20.1879 228.194L19.192 228.104L19.0929 229.194H20.1879V228.194ZM20.3766 226.119L21.3725 226.209L21.3731 226.201L20.3766 226.119ZM180.936 368V369H181.936V368H180.936ZM139.995 368H138.995V369H139.995V368ZM139.995 336.68H140.995V335.68H139.995V336.68ZM139.24 336.68V335.68H138.643L138.36 336.205L139.24 336.68ZM139.995 278.192H140.995V277.128L139.932 277.194L139.995 278.192ZM91.5059 281.211L91.5673 282.209L91.568 282.209L91.5059 281.211ZM78.4875 370.585C58.8806 370.585 42.5786 364.565 31.1901 354.218C19.8096 343.878 13.2637 329.155 13.2637 311.587H11.2637C11.2637 329.679 18.0191 344.954 29.8452 355.698C41.6634 366.435 58.4733 372.585 78.4875 372.585V370.585ZM13.2637 311.587V311.21H11.2637V311.587H13.2637ZM13.2637 311.21C13.2637 294.237 19.8331 280.617 32.1525 270.863C44.5071 261.082 62.7256 255.127 86.0945 253.72L85.9742 251.723C62.3639 253.146 43.697 259.172 30.911 269.295C18.09 279.446 11.2637 293.655 11.2637 311.21H13.2637ZM86.0937 253.72L140.054 250.512L139.935 248.516L85.975 251.723L86.0937 253.72ZM140.995 249.514V234.609H138.995V249.514H140.995ZM140.995 234.609C140.995 223.442 137.377 214.376 130.429 208.112C123.494 201.862 113.368 198.516 100.562 198.516V200.516C113.038 200.516 122.628 203.774 129.09 209.598C135.537 215.409 138.995 223.89 138.995 234.609H140.995ZM100.562 198.516C76.6552 198.516 61.5995 209.846 58.0765 226.287L60.0321 226.706C63.3013 211.449 77.301 200.516 100.562 200.516V198.516ZM58.0781 226.279L57.7008 227.977L59.6531 228.411L60.0305 226.713L58.0781 226.279ZM58.677 227.194H20.1879V229.194H58.677V227.194ZM21.1838 228.285L21.3725 226.209L19.3807 226.028L19.192 228.104L21.1838 228.285ZM21.3731 226.201C24.1486 192.71 53.1948 166.744 101.694 166.744V164.744C52.4614 164.744 22.2646 191.228 19.38 226.036L21.3731 226.201ZM101.694 166.744C125.771 166.744 145.335 173.114 158.861 184.32C172.367 195.509 179.936 211.587 179.936 231.213H181.936C181.936 211.029 174.129 194.372 160.136 182.78C146.163 171.203 126.106 164.744 101.694 164.744V166.744ZM179.936 231.213V368H181.936V231.213H179.936ZM180.936 367H139.995V369H180.936V367ZM140.995 368V336.68H138.995V368H140.995ZM139.995 335.68H139.24V337.68H139.995V335.68ZM138.36 336.205C127.035 357.184 104.366 370.585 78.4875 370.585V372.585C105.06 372.585 128.427 358.817 140.12 337.155L138.36 336.205ZM52.3941 310.644C52.3941 319.628 56.1186 326.996 62.6863 332.093C69.2287 337.171 78.5212 339.945 89.6191 339.945V337.945C78.8311 337.945 70.0112 335.247 63.9125 330.513C57.8392 325.8 54.3941 319.018 54.3941 310.644H52.3941ZM89.6191 339.945C118.746 339.945 140.995 320.162 140.995 293.663H138.995C138.995 318.86 117.849 337.945 89.6191 337.945V339.945ZM140.995 293.663V278.192H138.995V293.663H140.995ZM139.932 277.194L91.4437 280.213L91.568 282.209L140.057 279.19L139.932 277.194ZM91.4444 280.213C79.0642 280.975 69.3173 284.075 62.6421 289.215C55.9307 294.384 52.3941 301.565 52.3941 310.266H54.3941C54.3941 302.176 57.6498 295.584 63.8624 290.8C70.1112 285.988 79.4202 282.957 91.5673 282.209L91.4444 280.213ZM52.3941 310.266V310.644H54.3941V310.266H52.3941ZM220.557 368H219.557V369H220.557V368ZM220.557 169.517V168.517H219.557V169.517H220.557ZM261.311 169.517H262.311V168.517H261.311V169.517ZM261.311 203.478H260.311V204.478H261.311V203.478ZM262.254 203.478V204.478H263.015L263.218 203.745L262.254 203.478ZM322.063 167.253H323.063V166.414L322.237 166.268L322.063 167.253ZM322.063 205.176L321.682 206.101L323.063 206.669V205.176H322.063ZM261.311 368V369H262.311V368H261.311ZM221.557 368V169.517H219.557V368H221.557ZM220.557 170.517H261.311V168.517H220.557V170.517ZM260.311 169.517V203.478H262.311V169.517H260.311ZM261.311 204.478H262.254V202.478H261.311V204.478ZM263.218 203.745C269.535 180.892 285.799 166.744 307.913 166.744V164.744C284.745 164.744 267.803 179.651 261.29 203.212L263.218 203.745ZM307.913 166.744C313.662 166.744 318.675 167.671 321.889 168.238L322.237 166.268C319.036 165.703 313.86 164.744 307.913 164.744V166.744ZM321.063 167.253V205.176H323.063V167.253H321.063ZM322.444 204.251C320.714 203.539 318.014 202.961 314.806 202.557C311.577 202.15 307.761 201.912 303.762 201.912V203.912C307.687 203.912 311.418 204.146 314.556 204.541C317.716 204.939 320.204 205.492 321.682 206.101L322.444 204.251ZM303.762 201.912C290.423 201.912 279.522 206.285 271.965 214.523C264.417 222.751 260.311 234.715 260.311 249.703H262.311C262.311 235.069 266.317 223.638 273.439 215.875C280.55 208.123 290.875 203.912 303.762 203.912V201.912ZM260.311 249.703V368H262.311V249.703H260.311ZM261.311 367H220.557V369H261.311V367ZM349.609 368H348.609V369H349.609V368ZM349.609 95.7465V94.7465H348.609V95.7465H349.609ZM390.362 95.7465H391.362V94.7465H390.362V95.7465ZM390.362 254.231H389.362V255.231H390.362V254.231ZM391.305 254.231V255.231H391.738L392.034 254.916L391.305 254.231ZM470.925 169.517V168.517H470.493L470.196 168.832L470.925 169.517ZM518.848 169.517L519.572 170.207L521.18 168.517H518.848V169.517ZM437.341 255.174L436.617 254.485L436.034 255.098L436.542 255.775L437.341 255.174ZM522.055 368V369H524.056L522.855 367.4L522.055 368ZM474.698 368L473.903 368.607L474.204 369H474.698V368ZM407.343 279.702L408.138 279.095L407.448 278.191L406.639 278.991L407.343 279.702ZM390.362 296.493L389.659 295.782L389.362 296.076V296.493H390.362ZM390.362 368V369H391.362V368H390.362ZM350.609 368V95.7465H348.609V368H350.609ZM349.609 96.7465H390.362V94.7465H349.609V96.7465ZM389.362 95.7465V254.231H391.362V95.7465H389.362ZM390.362 255.231H391.305V253.231H390.362V255.231ZM392.034 254.916L471.654 170.202L470.196 168.832L390.577 253.546L392.034 254.916ZM470.925 170.517H518.848V168.517H470.925V170.517ZM518.123 168.828L436.617 254.485L438.066 255.864L519.572 170.207L518.123 168.828ZM436.542 255.775L521.255 368.6L522.855 367.4L438.141 254.574L436.542 255.775ZM522.055 367H474.698V369H522.055V367ZM475.494 367.393L408.138 279.095L406.548 280.308L473.903 368.607L475.494 367.393ZM406.639 278.991L389.659 295.782L391.065 297.204L408.046 280.413L406.639 278.991ZM389.362 296.493V368H391.362V296.493H389.362ZM390.362 367H349.609V369H390.362V367ZM544.13 368H543.13V369H544.13V368ZM544.13 169.517V168.517H543.13V169.517H544.13ZM584.883 169.517H585.883V168.517H584.883V169.517ZM584.883 368V369H585.883V368H584.883ZM564.506 137.952C551.841 137.952 541.734 127.824 541.734 115.557H539.734C539.734 128.949 550.757 139.952 564.506 139.952V137.952ZM541.734 115.557C541.734 103.096 551.846 92.973 564.506 92.973V90.973C550.752 90.973 539.734 101.981 539.734 115.557H541.734ZM564.506 92.973C577.35 92.973 587.279 103.091 587.279 115.557H589.279C589.279 101.986 578.454 90.973 564.506 90.973V92.973ZM587.279 115.557C587.279 127.829 577.355 137.952 564.506 137.952V139.952C578.449 139.952 589.279 128.944 589.279 115.557H587.279ZM545.13 368V169.517H543.13V368H545.13ZM544.13 170.517H584.883V168.517H544.13V170.517ZM583.883 169.517V368H585.883V169.517H583.883ZM584.883 367H544.13V369H584.883V367Z" fill="black" mask="url(#path-2-outside-1_167_20)"/>
</mask>
<g mask="url(#mask0_167_20)">
<rect x="-90" y="73" width="1526" height="345" fill="url(#paint0_linear_167_20)"/>
<rect x="4" y="182" width="191" height="61" fill="url(#paint1_radial_167_20)" fill-opacity="0.47"/>
<rect x="210.078" y="309.226" width="183.061" height="62" transform="rotate(-65.2354 210.078 309.226)" fill="url(#paint2_radial_167_20)" fill-opacity="0.47"/>
<rect x="443.373" y="416.763" width="183.061" height="62" transform="rotate(-123.626 443.373 416.763)" fill="url(#paint3_radial_167_20)" fill-opacity="0.47"/>
<rect x="400" y="255.875" width="183.061" height="62" transform="rotate(-47.9226 400 255.875)" fill="url(#paint4_radial_167_20)" fill-opacity="0.47"/>
<rect x="535.67" y="230.945" width="183.061" height="62" transform="rotate(-90.8355 535.67 230.945)" fill="url(#paint5_radial_167_20)" fill-opacity="0.47"/>
</g>
</g>
<defs>
<linearGradient id="paint0_linear_167_20" x1="673.866" y1="47.546" x2="673.822" y2="418" gradientUnits="userSpaceOnUse">
<stop stop-color="#5A5555"/>
<stop offset="0.923179" stop-color="#313131" stop-opacity="0"/>
</linearGradient>
<radialGradient id="paint1_radial_167_20" cx="0" cy="0" r="1" gradientUnits="userSpaceOnUse" gradientTransform="translate(99.5 212.5) rotate(90) scale(30.5 101.47)">
<stop/>
<stop offset="1" stop-opacity="0"/>
</radialGradient>
<radialGradient id="paint2_radial_167_20" cx="0" cy="0" r="1" gradientUnits="userSpaceOnUse" gradientTransform="translate(301.608 340.226) rotate(90) scale(31 97.2518)">
<stop/>
<stop offset="1" stop-opacity="0"/>
</radialGradient>
<radialGradient id="paint3_radial_167_20" cx="0" cy="0" r="1" gradientUnits="userSpaceOnUse" gradientTransform="translate(534.903 447.763) rotate(90) scale(31 97.2518)">
<stop/>
<stop offset="1" stop-opacity="0"/>
</radialGradient>
<radialGradient id="paint4_radial_167_20" cx="0" cy="0" r="1" gradientUnits="userSpaceOnUse" gradientTransform="translate(491.53 286.875) rotate(90) scale(31 97.2518)">
<stop/>
<stop offset="1" stop-opacity="0"/>
</radialGradient>
<radialGradient id="paint5_radial_167_20" cx="0" cy="0" r="1" gradientUnits="userSpaceOnUse" gradientTransform="translate(627.2 261.945) rotate(90) scale(31 97.2518)">
<stop/>
<stop offset="1" stop-opacity="0"/>
</radialGradient>
<clipPath id="clip0_167_20">
<rect width="608" height="350" fill="white"/>
</clipPath>
</defs>
</svg>
