<svg width="1346" height="350" viewBox="0 0 1346 350" fill="none" xmlns="http://www.w3.org/2000/svg">
<g style="mix-blend-mode:luminosity" clip-path="url(#clip0_156_2)">
<path d="M79.4875 371.585C39.8664 371.585 13.2637 347.246 13.2637 311.587V311.21C13.2637 276.683 40.0551 255.552 87.0344 252.721L140.995 249.514V234.609C140.995 212.723 126.844 199.516 101.562 199.516C77.9781 199.516 63.4504 210.648 60.0543 226.496L59.677 228.194H21.1879L21.3766 226.119C24.2066 191.969 53.8281 165.744 102.694 165.744C151.183 165.744 181.936 191.403 181.936 231.213V368H140.995V336.68H140.24C128.731 358 105.713 371.585 79.4875 371.585ZM54.3941 310.644C54.3941 328.002 68.7332 338.945 90.6191 338.945C119.297 338.945 140.995 319.511 140.995 293.663V278.192L92.5059 281.211C67.9785 282.72 54.3941 293.475 54.3941 310.266V310.644ZM221.557 368V169.517H262.311V203.478H263.254C269.669 180.271 286.272 165.744 308.913 165.744C314.761 165.744 319.855 166.687 323.063 167.253V205.176C319.855 203.855 312.686 202.912 304.762 202.912C278.536 202.912 262.311 220.081 262.311 249.703V368H221.557ZM350.609 368V95.7465H391.362V254.231H392.305L471.925 169.517H519.848L438.341 255.174L523.055 368H475.698L408.343 279.702L391.362 296.493V368H350.609ZM565.506 138.952C552.299 138.952 541.734 128.387 541.734 115.557C541.734 102.539 552.299 91.973 565.506 91.973C578.902 91.973 589.279 102.539 589.279 115.557C589.279 128.387 578.902 138.952 565.506 138.952ZM545.13 368V169.517H585.883V368H545.13ZM697.577 371.962C658.333 371.962 639.466 355.359 639.466 315.738V201.969H610.976V169.517H639.466V117.821H681.162V169.517H718.331V201.969H681.162V313.285C681.162 333.473 690.218 339.511 707.388 339.511C711.727 339.511 715.312 339.133 718.331 338.756V370.264C713.614 371.019 705.878 371.962 697.577 371.962ZM831.911 371.962C773.611 371.962 738.33 332.152 738.33 269.513V269.325C738.33 207.252 774.177 165.744 829.836 165.744C885.494 165.744 919.643 205.742 919.643 265.362V279.136H779.083C779.838 316.681 800.403 338.567 832.854 338.567C857.004 338.567 873.041 326.115 878.136 311.21L878.702 309.7H917.379L917.002 311.776C910.587 343.284 880.022 371.962 831.911 371.962ZM830.024 199.139C803.61 199.139 783.234 217.062 779.649 250.269H879.268C875.872 215.93 856.627 199.139 830.024 199.139ZM1036.62 371.962C978.698 371.962 942.473 332.152 942.473 268.57V268.381C942.473 205.554 979.452 165.744 1036.05 165.744C1087.18 165.744 1118.13 198.573 1121.52 235.93L1121.71 237.25H1082.84L1082.47 235.741C1078.13 216.308 1063.03 199.893 1036.43 199.893C1004.73 199.893 984.169 226.307 984.169 268.759V268.947C984.169 312.342 1005.11 337.812 1036.62 337.812C1061.71 337.812 1077.75 323.285 1082.66 301.776L1082.84 300.267H1122.09L1121.9 301.587C1117.56 341.397 1084.35 371.962 1036.62 371.962ZM1152.46 368V95.7465H1193.22V202.157H1194.16C1204.73 179.139 1226.05 165.744 1255.67 165.744C1298.12 165.744 1326.04 197.441 1326.04 245.363V368H1285.29V253.099C1285.29 220.27 1268.69 200.648 1240.01 200.648C1211.9 200.648 1193.22 222.157 1193.22 253.099V368H1152.46Z" fill="#0A0A0A" fill-opacity="0.03"/>
<mask id="mask0_156_2" style="mask-type:alpha" maskUnits="userSpaceOnUse" x="12" y="91" width="1314" height="281">
<mask id="path-2-outside-1_156_2" maskUnits="userSpaceOnUse" x="11" y="90" width="1316" height="283" fill="black">
<rect fill="white" x="11" y="90" width="1316" height="283"/>
<path d="M78.4875 371.585C38.8664 371.585 12.2637 347.246 12.2637 311.587V311.21C12.2637 276.683 39.0551 255.552 86.0344 252.721L139.995 249.514V234.609C139.995 212.723 125.844 199.516 100.562 199.516C76.9781 199.516 62.4504 210.648 59.0543 226.496L58.677 228.194H20.1879L20.3766 226.119C23.2066 191.969 52.8281 165.744 101.694 165.744C150.183 165.744 180.936 191.403 180.936 231.213V368H139.995V336.68H139.24C127.731 358 104.713 371.585 78.4875 371.585ZM53.3941 310.644C53.3941 328.002 67.7332 338.945 89.6191 338.945C118.297 338.945 139.995 319.511 139.995 293.663V278.192L91.5059 281.211C66.9785 282.72 53.3941 293.475 53.3941 310.266V310.644ZM220.557 368V169.517H261.311V203.478H262.254C268.669 180.271 285.272 165.744 307.913 165.744C313.761 165.744 318.855 166.687 322.063 167.253V205.176C318.855 203.855 311.686 202.912 303.762 202.912C277.536 202.912 261.311 220.081 261.311 249.703V368H220.557ZM349.609 368V95.7465H390.362V254.231H391.305L470.925 169.517H518.848L437.341 255.174L522.055 368H474.698L407.343 279.702L390.362 296.493V368H349.609ZM564.506 138.952C551.299 138.952 540.734 128.387 540.734 115.557C540.734 102.539 551.299 91.973 564.506 91.973C577.902 91.973 588.279 102.539 588.279 115.557C588.279 128.387 577.902 138.952 564.506 138.952ZM544.13 368V169.517H584.883V368H544.13ZM696.577 371.962C657.333 371.962 638.466 355.359 638.466 315.738V201.969H609.976V169.517H638.466V117.821H680.162V169.517H717.331V201.969H680.162V313.285C680.162 333.473 689.218 339.511 706.388 339.511C710.727 339.511 714.312 339.133 717.331 338.756V370.264C712.614 371.019 704.878 371.962 696.577 371.962ZM830.911 371.962C772.611 371.962 737.33 332.152 737.33 269.513V269.325C737.33 207.252 773.177 165.744 828.836 165.744C884.494 165.744 918.643 205.742 918.643 265.362V279.136H778.083C778.838 316.681 799.403 338.567 831.854 338.567C856.004 338.567 872.041 326.115 877.136 311.21L877.702 309.7H916.379L916.002 311.776C909.587 343.284 879.022 371.962 830.911 371.962ZM829.024 199.139C802.61 199.139 782.234 217.062 778.649 250.269H878.268C874.872 215.93 855.627 199.139 829.024 199.139ZM1035.62 371.962C977.698 371.962 941.473 332.152 941.473 268.57V268.381C941.473 205.554 978.452 165.744 1035.05 165.744C1086.18 165.744 1117.13 198.573 1120.52 235.93L1120.71 237.25H1081.84L1081.47 235.741C1077.13 216.308 1062.03 199.893 1035.43 199.893C1003.73 199.893 983.169 226.307 983.169 268.759V268.947C983.169 312.342 1004.11 337.812 1035.62 337.812C1060.71 337.812 1076.75 323.285 1081.66 301.776L1081.84 300.267H1121.09L1120.9 301.587C1116.56 341.397 1083.35 371.962 1035.62 371.962ZM1151.46 368V95.7465H1192.22V202.157H1193.16C1203.73 179.139 1225.05 165.744 1254.67 165.744C1297.12 165.744 1325.04 197.441 1325.04 245.363V368H1284.29V253.099C1284.29 220.27 1267.69 200.648 1239.01 200.648C1210.9 200.648 1192.22 222.157 1192.22 253.099V368H1151.46Z"/>
</mask>
<path d="M86.0344 252.721L85.975 251.723L85.9743 251.723L86.0344 252.721ZM139.995 249.514L140.054 250.512L140.995 250.456V249.514H139.995ZM59.0543 226.496L60.0305 226.713L60.0321 226.706L59.0543 226.496ZM58.677 228.194V229.194H59.4791L59.6531 228.411L58.677 228.194ZM20.1879 228.194L19.192 228.104L19.0929 229.194H20.1879V228.194ZM20.3766 226.119L21.3725 226.209L21.3731 226.201L20.3766 226.119ZM180.936 368V369H181.936V368H180.936ZM139.995 368H138.995V369H139.995V368ZM139.995 336.68H140.995V335.68H139.995V336.68ZM139.24 336.68V335.68H138.643L138.36 336.205L139.24 336.68ZM139.995 278.192H140.995V277.128L139.932 277.194L139.995 278.192ZM91.5059 281.211L91.5673 282.209L91.568 282.209L91.5059 281.211ZM78.4875 370.585C58.8806 370.585 42.5786 364.565 31.1901 354.218C19.8096 343.878 13.2637 329.155 13.2637 311.587H11.2637C11.2637 329.679 18.0191 344.954 29.8452 355.698C41.6634 366.435 58.4733 372.585 78.4875 372.585V370.585ZM13.2637 311.587V311.21H11.2637V311.587H13.2637ZM13.2637 311.21C13.2637 294.237 19.8331 280.617 32.1525 270.863C44.5071 261.082 62.7256 255.127 86.0945 253.72L85.9743 251.723C62.3639 253.146 43.697 259.172 30.911 269.295C18.09 279.446 11.2637 293.655 11.2637 311.21H13.2637ZM86.0937 253.72L140.054 250.512L139.935 248.516L85.975 251.723L86.0937 253.72ZM140.995 249.514V234.609H138.995V249.514H140.995ZM140.995 234.609C140.995 223.442 137.377 214.376 130.429 208.112C123.494 201.862 113.368 198.516 100.562 198.516V200.516C113.038 200.516 122.628 203.774 129.09 209.598C135.537 215.409 138.995 223.89 138.995 234.609H140.995ZM100.562 198.516C76.6553 198.516 61.5995 209.846 58.0765 226.287L60.0321 226.706C63.3013 211.449 77.301 200.516 100.562 200.516V198.516ZM58.0781 226.279L57.7008 227.977L59.6531 228.411L60.0305 226.713L58.0781 226.279ZM58.677 227.194H20.1879V229.194H58.677V227.194ZM21.1838 228.285L21.3725 226.209L19.3807 226.028L19.192 228.104L21.1838 228.285ZM21.3731 226.201C24.1486 192.71 53.1948 166.744 101.694 166.744V164.744C52.4614 164.744 22.2646 191.228 19.38 226.036L21.3731 226.201ZM101.694 166.744C125.771 166.744 145.335 173.114 158.861 184.32C172.367 195.509 179.936 211.587 179.936 231.213H181.936C181.936 211.029 174.129 194.372 160.136 182.78C146.163 171.203 126.106 164.744 101.694 164.744V166.744ZM179.936 231.213V368H181.936V231.213H179.936ZM180.936 367H139.995V369H180.936V367ZM140.995 368V336.68H138.995V368H140.995ZM139.995 335.68H139.24V337.68H139.995V335.68ZM138.36 336.205C127.035 357.184 104.366 370.585 78.4875 370.585V372.585C105.06 372.585 128.427 358.817 140.12 337.155L138.36 336.205ZM52.3941 310.644C52.3941 319.628 56.1186 326.996 62.6863 332.093C69.2287 337.171 78.5212 339.945 89.6191 339.945V337.945C78.8311 337.945 70.0112 335.247 63.9125 330.513C57.8392 325.8 54.3941 319.018 54.3941 310.644H52.3941ZM89.6191 339.945C118.746 339.945 140.995 320.162 140.995 293.663H138.995C138.995 318.86 117.849 337.945 89.6191 337.945V339.945ZM140.995 293.663V278.192H138.995V293.663H140.995ZM139.932 277.194L91.4437 280.213L91.568 282.209L140.057 279.19L139.932 277.194ZM91.4444 280.213C79.0642 280.975 69.3173 284.075 62.6421 289.215C55.9307 294.384 52.3941 301.565 52.3941 310.266H54.3941C54.3941 302.176 57.6498 295.584 63.8624 290.8C70.1112 285.988 79.4202 282.957 91.5673 282.209L91.4444 280.213ZM52.3941 310.266V310.644H54.3941V310.266H52.3941ZM220.557 368H219.557V369H220.557V368ZM220.557 169.517V168.517H219.557V169.517H220.557ZM261.311 169.517H262.311V168.517H261.311V169.517ZM261.311 203.478H260.311V204.478H261.311V203.478ZM262.254 203.478V204.478H263.015L263.218 203.745L262.254 203.478ZM322.063 167.253H323.063V166.414L322.237 166.268L322.063 167.253ZM322.063 205.176L321.682 206.101L323.063 206.669V205.176H322.063ZM261.311 368V369H262.311V368H261.311ZM221.557 368V169.517H219.557V368H221.557ZM220.557 170.517H261.311V168.517H220.557V170.517ZM260.311 169.517V203.478H262.311V169.517H260.311ZM261.311 204.478H262.254V202.478H261.311V204.478ZM263.218 203.745C269.535 180.892 285.799 166.744 307.913 166.744V164.744C284.745 164.744 267.803 179.651 261.29 203.212L263.218 203.745ZM307.913 166.744C313.662 166.744 318.675 167.671 321.889 168.238L322.237 166.268C319.036 165.703 313.86 164.744 307.913 164.744V166.744ZM321.063 167.253V205.176H323.063V167.253H321.063ZM322.444 204.251C320.714 203.539 318.014 202.961 314.806 202.557C311.577 202.15 307.761 201.912 303.762 201.912V203.912C307.687 203.912 311.418 204.146 314.556 204.541C317.716 204.939 320.204 205.492 321.682 206.101L322.444 204.251ZM303.762 201.912C290.423 201.912 279.522 206.285 271.965 214.523C264.417 222.751 260.311 234.715 260.311 249.703H262.311C262.311 235.069 266.317 223.638 273.439 215.875C280.55 208.123 290.875 203.912 303.762 203.912V201.912ZM260.311 249.703V368H262.311V249.703H260.311ZM261.311 367H220.557V369H261.311V367ZM349.609 368H348.609V369H349.609V368ZM349.609 95.7465V94.7465H348.609V95.7465H349.609ZM390.362 95.7465H391.362V94.7465H390.362V95.7465ZM390.362 254.231H389.362V255.231H390.362V254.231ZM391.305 254.231V255.231H391.738L392.034 254.916L391.305 254.231ZM470.925 169.517V168.517H470.493L470.196 168.832L470.925 169.517ZM518.848 169.517L519.572 170.207L521.18 168.517H518.848V169.517ZM437.341 255.174L436.617 254.485L436.034 255.098L436.542 255.775L437.341 255.174ZM522.055 368V369H524.056L522.855 367.4L522.055 368ZM474.698 368L473.903 368.607L474.204 369H474.698V368ZM407.343 279.702L408.138 279.095L407.448 278.191L406.639 278.991L407.343 279.702ZM390.362 296.493L389.659 295.782L389.362 296.076V296.493H390.362ZM390.362 368V369H391.362V368H390.362ZM350.609 368V95.7465H348.609V368H350.609ZM349.609 96.7465H390.362V94.7465H349.609V96.7465ZM389.362 95.7465V254.231H391.362V95.7465H389.362ZM390.362 255.231H391.305V253.231H390.362V255.231ZM392.034 254.916L471.654 170.202L470.196 168.832L390.577 253.546L392.034 254.916ZM470.925 170.517H518.848V168.517H470.925V170.517ZM518.123 168.828L436.617 254.485L438.066 255.864L519.572 170.207L518.123 168.828ZM436.542 255.775L521.255 368.6L522.855 367.4L438.141 254.574L436.542 255.775ZM522.055 367H474.698V369H522.055V367ZM475.494 367.393L408.138 279.095L406.548 280.308L473.903 368.607L475.494 367.393ZM406.639 278.991L389.659 295.782L391.065 297.204L408.046 280.413L406.639 278.991ZM389.362 296.493V368H391.362V296.493H389.362ZM390.362 367H349.609V369H390.362V367ZM544.13 368H543.13V369H544.13V368ZM544.13 169.517V168.517H543.13V169.517H544.13ZM584.883 169.517H585.883V168.517H584.883V169.517ZM584.883 368V369H585.883V368H584.883ZM564.506 137.952C551.841 137.952 541.734 127.824 541.734 115.557H539.734C539.734 128.949 550.757 139.952 564.506 139.952V137.952ZM541.734 115.557C541.734 103.096 551.846 92.973 564.506 92.973V90.973C550.752 90.973 539.734 101.981 539.734 115.557H541.734ZM564.506 92.973C577.35 92.973 587.279 103.091 587.279 115.557H589.279C589.279 101.986 578.454 90.973 564.506 90.973V92.973ZM587.279 115.557C587.279 127.829 577.355 137.952 564.506 137.952V139.952C578.449 139.952 589.279 128.944 589.279 115.557H587.279ZM545.13 368V169.517H543.13V368H545.13ZM544.13 170.517H584.883V168.517H544.13V170.517ZM583.883 169.517V368H585.883V169.517H583.883ZM584.883 367H544.13V369H584.883V367ZM638.466 201.969H639.466V200.969H638.466V201.969ZM609.976 201.969H608.976V202.969H609.976V201.969ZM609.976 169.517V168.517H608.976V169.517H609.976ZM638.466 169.517V170.517H639.466V169.517H638.466ZM638.466 117.821V116.821H637.466V117.821H638.466ZM680.162 117.821H681.162V116.821H680.162V117.821ZM680.162 169.517H679.162V170.517H680.162V169.517ZM717.331 169.517H718.331V168.517H717.331V169.517ZM717.331 201.969V202.969H718.331V201.969H717.331ZM680.162 201.969V200.969H679.162V201.969H680.162ZM717.331 338.756H718.331V337.623L717.206 337.764L717.331 338.756ZM717.331 370.264L717.489 371.251L718.331 371.117V370.264H717.331ZM696.577 370.962C677.069 370.962 662.846 366.832 653.492 357.981C644.149 349.143 639.466 335.407 639.466 315.738H637.466C637.466 335.689 642.216 350.066 652.117 359.434C662.008 368.791 676.84 372.962 696.577 372.962V370.962ZM639.466 315.738V201.969H637.466V315.738H639.466ZM638.466 200.969H609.976V202.969H638.466V200.969ZM610.976 201.969V169.517H608.976V201.969H610.976ZM609.976 170.517H638.466V168.517H609.976V170.517ZM639.466 169.517V117.821H637.466V169.517H639.466ZM638.466 118.821H680.162V116.821H638.466V118.821ZM679.162 117.821V169.517H681.162V117.821H679.162ZM680.162 170.517H717.331V168.517H680.162V170.517ZM716.331 169.517V201.969H718.331V169.517H716.331ZM717.331 200.969H680.162V202.969H717.331V200.969ZM679.162 201.969V313.285H681.162V201.969H679.162ZM679.162 313.285C679.162 323.501 681.451 330.398 686.162 334.706C690.853 338.996 697.726 340.511 706.388 340.511V338.511C697.88 338.511 691.64 337.006 687.511 333.23C683.402 329.472 681.162 323.257 681.162 313.285H679.162ZM706.388 340.511C710.787 340.511 714.418 340.128 717.455 339.748L717.206 337.764C714.206 338.139 710.667 338.511 706.388 338.511V340.511ZM716.331 338.756V370.264H718.331V338.756H716.331ZM717.173 369.277C712.489 370.026 704.809 370.962 696.577 370.962V372.962C704.947 372.962 712.738 372.012 717.489 371.251L717.173 369.277ZM918.643 279.136V280.136H919.643V279.136H918.643ZM778.083 279.136V278.136H777.063L777.083 279.156L778.083 279.136ZM877.136 311.21L876.199 310.859L876.194 310.872L876.189 310.886L877.136 311.21ZM877.702 309.7V308.7H877.009L876.765 309.349L877.702 309.7ZM916.379 309.7L917.363 309.879L917.578 308.7H916.379V309.7ZM916.002 311.776L916.982 311.975L916.984 311.965L916.986 311.955L916.002 311.776ZM778.649 250.269L777.655 250.161L777.535 251.269H778.649V250.269ZM878.268 250.269V251.269H879.371L879.263 250.17L878.268 250.269ZM830.911 370.962C802 370.962 778.89 361.099 762.999 343.556C747.097 326.001 738.33 300.65 738.33 269.513H736.33C736.33 301.015 745.203 326.889 761.517 344.899C777.842 362.92 801.522 372.962 830.911 372.962V370.962ZM738.33 269.513V269.325H736.33V269.513H738.33ZM738.33 269.325C738.33 238.476 747.236 212.833 762.962 194.916C778.677 177.013 801.272 166.744 828.836 166.744V164.744C800.741 164.744 777.583 175.228 761.459 193.597C745.347 211.953 736.33 238.1 736.33 269.325H738.33ZM828.836 166.744C856.41 166.744 878.578 176.643 893.864 193.859C909.16 211.089 917.643 235.738 917.643 265.362H919.643C919.643 235.367 911.052 210.206 895.359 192.532C879.655 174.843 856.919 164.744 828.836 164.744V166.744ZM917.643 265.362V279.136H919.643V265.362H917.643ZM918.643 278.136H778.083V280.136H918.643V278.136ZM777.083 279.156C777.464 298.101 782.846 313.216 792.344 323.606C801.854 334.009 815.392 339.567 831.854 339.567V337.567C815.865 337.567 802.895 332.183 793.82 322.256C784.734 312.317 779.457 297.716 779.083 279.115L777.083 279.156ZM831.854 339.567C856.356 339.567 872.826 326.91 878.082 311.533L876.189 310.886C871.257 325.319 855.653 337.567 831.854 337.567V339.567ZM878.072 311.561L878.638 310.052L876.765 309.349L876.199 310.859L878.072 311.561ZM877.702 310.7H916.379V308.7H877.702V310.7ZM915.395 309.522L915.018 311.597L916.986 311.955L917.363 309.879L915.395 309.522ZM915.022 311.576C908.712 342.569 878.599 370.962 830.911 370.962V372.962C879.445 372.962 910.462 343.999 916.982 311.975L915.022 311.576ZM829.024 198.139C815.582 198.139 803.625 202.705 794.577 211.536C785.534 220.361 779.467 233.377 777.655 250.161L779.643 250.376C781.416 233.954 787.329 221.405 795.974 212.967C804.614 204.535 816.053 200.139 829.024 200.139V198.139ZM778.649 251.269H878.268V249.269H778.649V251.269ZM879.263 250.17C877.549 232.838 871.822 219.813 863.053 211.117C854.275 202.411 842.544 198.139 829.024 198.139V200.139C842.107 200.139 853.3 204.262 861.644 212.537C869.997 220.821 875.591 233.362 877.272 250.367L879.263 250.17ZM1120.52 235.93L1119.53 236.02L1119.53 236.046L1119.53 236.071L1120.52 235.93ZM1120.71 237.25V238.25H1121.86L1121.7 237.109L1120.71 237.25ZM1081.84 237.25L1080.87 237.493L1081.06 238.25H1081.84V237.25ZM1081.47 235.741L1080.49 235.959L1080.49 235.971L1080.5 235.984L1081.47 235.741ZM1081.66 301.776L1082.63 301.999L1082.64 301.95L1082.65 301.9L1081.66 301.776ZM1081.84 300.267V299.267H1080.96L1080.85 300.143L1081.84 300.267ZM1121.09 300.267L1122.08 300.408L1122.24 299.267H1121.09V300.267ZM1120.9 301.587L1119.91 301.446L1119.91 301.463L1119.91 301.479L1120.9 301.587ZM1035.62 370.962C1006.9 370.962 983.646 361.1 967.565 343.436C951.474 325.762 942.473 300.176 942.473 268.57H940.473C940.473 300.547 949.584 326.656 966.086 344.783C982.598 362.92 1006.42 372.962 1035.62 372.962V370.962ZM942.473 268.57V268.381H940.473V268.57H942.473ZM942.473 268.381C942.473 237.161 951.658 211.762 967.775 194.178C983.883 176.603 1007 166.744 1035.05 166.744V164.744C1006.51 164.744 982.832 174.79 966.301 192.826C949.777 210.854 940.473 236.774 940.473 268.381H942.473ZM1035.05 166.744C1085.7 166.744 1116.18 199.206 1119.53 236.02L1121.52 235.839C1118.07 197.939 1086.67 164.744 1035.05 164.744V166.744ZM1119.53 236.071L1119.72 237.392L1121.7 237.109L1121.51 235.788L1119.53 236.071ZM1120.71 236.25H1081.84V238.25H1120.71V236.25ZM1082.81 237.008L1082.44 235.498L1080.5 235.984L1080.87 237.493L1082.81 237.008ZM1082.44 235.523C1080.23 225.627 1075.28 216.463 1067.45 209.77C1059.61 203.069 1048.95 198.893 1035.43 198.893V200.893C1048.52 200.893 1058.7 204.925 1066.15 211.29C1073.6 217.662 1078.36 226.422 1080.49 235.959L1082.44 235.523ZM1035.43 198.893C1019.27 198.893 1005.91 205.64 996.619 217.799C987.345 229.933 982.169 247.384 982.169 268.759H984.169C984.169 247.682 989.276 230.701 998.208 219.014C1007.12 207.354 1019.89 200.893 1035.43 200.893V198.893ZM982.169 268.759V268.947H984.169V268.759H982.169ZM982.169 268.947C982.169 290.793 987.44 308.249 996.79 320.267C1006.16 332.311 1019.57 338.812 1035.62 338.812V336.812C1020.16 336.812 1007.35 330.578 998.368 319.039C989.37 307.473 984.169 290.496 984.169 268.947H982.169ZM1035.62 338.812C1048.37 338.812 1058.88 335.119 1066.84 328.635C1074.8 322.154 1080.14 312.937 1082.63 301.999L1080.68 301.554C1078.27 312.124 1073.14 320.925 1065.58 327.085C1058.02 333.242 1047.97 336.812 1035.62 336.812V338.812ZM1082.65 301.9L1082.84 300.391L1080.85 300.143L1080.66 301.652L1082.65 301.9ZM1081.84 301.267H1121.09V299.267H1081.84V301.267ZM1120.1 300.125L1119.91 301.446L1121.89 301.729L1122.08 300.408L1120.1 300.125ZM1119.91 301.479C1115.63 340.737 1082.89 370.962 1035.62 370.962V372.962C1083.82 372.962 1117.49 342.058 1121.89 301.696L1119.91 301.479ZM1151.46 368H1150.46V369H1151.46V368ZM1151.46 95.7465V94.7465H1150.46V95.7465H1151.46ZM1192.22 95.7465H1193.22V94.7465H1192.22V95.7465ZM1192.22 202.157H1191.22V203.157H1192.22V202.157ZM1193.16 202.157V203.157H1193.8L1194.07 202.575L1193.16 202.157ZM1325.04 368V369H1326.04V368H1325.04ZM1284.29 368H1283.29V369H1284.29V368ZM1192.22 368V369H1193.22V368H1192.22ZM1152.46 368V95.7465H1150.46V368H1152.46ZM1151.46 96.7465H1192.22V94.7465H1151.46V96.7465ZM1191.22 95.7465V202.157H1193.22V95.7465H1191.22ZM1192.22 203.157H1193.16V201.157H1192.22V203.157ZM1194.07 202.575C1204.45 179.952 1225.39 166.744 1254.67 166.744V164.744C1224.7 164.744 1203 178.327 1192.25 201.74L1194.07 202.575ZM1254.67 166.744C1275.63 166.744 1292.94 174.561 1305.02 188.244C1317.12 201.94 1324.04 221.592 1324.04 245.363H1326.04C1326.04 221.212 1319 201.054 1306.52 186.921C1294.03 172.775 1276.16 164.744 1254.67 164.744V166.744ZM1324.04 245.363V368H1326.04V245.363H1324.04ZM1325.04 367H1284.29V369H1325.04V367ZM1285.29 368V253.099H1283.29V368H1285.29ZM1285.29 253.099C1285.29 236.527 1281.1 223.155 1273.16 213.911C1265.21 204.646 1253.59 199.648 1239.01 199.648V201.648C1253.1 201.648 1264.13 206.461 1271.64 215.214C1279.18 223.988 1283.29 236.842 1283.29 253.099H1285.29ZM1239.01 199.648C1224.68 199.648 1212.71 205.137 1204.32 214.607C1195.95 224.067 1191.22 237.43 1191.22 253.099H1193.22C1193.22 237.826 1197.83 224.963 1205.82 215.933C1213.8 206.913 1225.22 201.648 1239.01 201.648V199.648ZM1191.22 253.099V368H1193.22V253.099H1191.22ZM1192.22 367H1151.46V369H1192.22V367Z" fill="black" mask="url(#path-2-outside-1_156_2)"/>
</mask>
<g mask="url(#mask0_156_2)">
<rect x="-90" y="73" width="1526" height="345" fill="url(#paint0_linear_156_2)"/>
<rect x="4" y="182" width="191" height="61" fill="url(#paint1_radial_156_2)" fill-opacity="0.47"/>
<rect x="210.078" y="309.226" width="183.061" height="62" transform="rotate(-65.2354 210.078 309.226)" fill="url(#paint2_radial_156_2)" fill-opacity="0.47"/>
<rect x="443.373" y="416.763" width="183.061" height="62" transform="rotate(-123.626 443.373 416.763)" fill="url(#paint3_radial_156_2)" fill-opacity="0.47"/>
<rect x="400" y="255.875" width="183.061" height="62" transform="rotate(-47.9226 400 255.875)" fill="url(#paint4_radial_156_2)" fill-opacity="0.47"/>
<rect x="535.67" y="230.945" width="183.061" height="62" transform="rotate(-90.8355 535.67 230.945)" fill="url(#paint5_radial_156_2)" fill-opacity="0.47"/>
<rect x="614.67" y="338.945" width="183.061" height="62" transform="rotate(-90.8355 614.67 338.945)" fill="url(#paint6_radial_156_2)" fill-opacity="0.47"/>
<rect x="722.67" y="350.002" width="183.061" height="134.479" transform="rotate(-90.8355 722.67 350.002)" fill="url(#paint7_radial_156_2)" fill-opacity="0.47"/>
<rect x="973.67" y="360.903" width="183.061" height="196.268" transform="rotate(-90.8355 973.67 360.903)" fill="url(#paint8_radial_156_2)" fill-opacity="0.47"/>
<rect x="1152.67" y="370.903" width="183.061" height="196.268" transform="rotate(-90.8355 1152.67 370.903)" fill="url(#paint9_radial_156_2)" fill-opacity="0.47"/>
</g>
</g>
<defs>
<linearGradient id="paint0_linear_156_2" x1="673.866" y1="47.546" x2="673.822" y2="418" gradientUnits="userSpaceOnUse">
<stop stop-color="#5A5555"/>
<stop offset="0.923179" stop-color="#313131" stop-opacity="0"/>
</linearGradient>
<radialGradient id="paint1_radial_156_2" cx="0" cy="0" r="1" gradientUnits="userSpaceOnUse" gradientTransform="translate(99.5 212.5) rotate(90) scale(30.5 101.47)">
<stop/>
<stop offset="1" stop-opacity="0"/>
</radialGradient>
<radialGradient id="paint2_radial_156_2" cx="0" cy="0" r="1" gradientUnits="userSpaceOnUse" gradientTransform="translate(301.608 340.226) rotate(90) scale(31 97.2518)">
<stop/>
<stop offset="1" stop-opacity="0"/>
</radialGradient>
<radialGradient id="paint3_radial_156_2" cx="0" cy="0" r="1" gradientUnits="userSpaceOnUse" gradientTransform="translate(534.903 447.763) rotate(90) scale(31 97.2518)">
<stop/>
<stop offset="1" stop-opacity="0"/>
</radialGradient>
<radialGradient id="paint4_radial_156_2" cx="0" cy="0" r="1" gradientUnits="userSpaceOnUse" gradientTransform="translate(491.53 286.875) rotate(90) scale(31 97.2518)">
<stop/>
<stop offset="1" stop-opacity="0"/>
</radialGradient>
<radialGradient id="paint5_radial_156_2" cx="0" cy="0" r="1" gradientUnits="userSpaceOnUse" gradientTransform="translate(627.2 261.945) rotate(90) scale(31 97.2518)">
<stop/>
<stop offset="1" stop-opacity="0"/>
</radialGradient>
<radialGradient id="paint6_radial_156_2" cx="0" cy="0" r="1" gradientUnits="userSpaceOnUse" gradientTransform="translate(706.2 369.945) rotate(90) scale(31 97.2518)">
<stop/>
<stop offset="1" stop-opacity="0"/>
</radialGradient>
<radialGradient id="paint7_radial_156_2" cx="0" cy="0" r="1" gradientUnits="userSpaceOnUse" gradientTransform="translate(814.2 417.242) rotate(90) scale(67.2397 97.2518)">
<stop/>
<stop offset="1" stop-opacity="0"/>
</radialGradient>
<radialGradient id="paint8_radial_156_2" cx="0" cy="0" r="1" gradientUnits="userSpaceOnUse" gradientTransform="translate(1065.2 459.037) rotate(90) scale(98.1339 97.2518)">
<stop/>
<stop offset="1" stop-opacity="0"/>
</radialGradient>
<radialGradient id="paint9_radial_156_2" cx="0" cy="0" r="1" gradientUnits="userSpaceOnUse" gradientTransform="translate(1244.2 469.037) rotate(90) scale(98.1339 97.2518)">
<stop/>
<stop offset="1" stop-opacity="0"/>
</radialGradient>
<clipPath id="clip0_156_2">
<rect width="1346" height="350" fill="white"/>
</clipPath>
</defs>
</svg>
