<svg width="834" height="834" viewBox="0 0 834 834" fill="none" xmlns="http://www.w3.org/2000/svg">
<path d="M819.2 0H187.6C84 0 0 84 0 187.6V819.2C0 827.1 6.4 833.5 14.3 833.5H645.9C749.5 833.5 833.5 749.5 833.5 645.9V14.3C833.5 6.4 827.1 0 819.2 0ZM560.6 58.5H699.2C711.9 58.5 718.3 73.9 709.3 82.9L470.4 321.8C461.4 330.8 446 324.4 446 311.7V173.1C446 109.8 497.3 58.5 560.6 58.5ZM373.2 387.5H293.4C282.8 387.5 275.9 376.3 280.6 366.8L360.4 207.3C367.1 193.8 387.5 198.6 387.5 213.7V373.2C387.5 381.1 381.1 387.5 373.2 387.5ZM775 134.3V373.2C775 381.1 768.6 387.5 760.7 387.5H521.8C509.1 387.5 502.7 372.1 511.7 363.1L750.6 124.2C759.6 115.2 775 121.6 775 134.3ZM211.2 58.5H346.4C357 58.5 363.9 69.7 359.2 79.2L228.8 339.8C214.2 369 184.3 387.5 151.6 387.5H72.8C64.9 387.5 58.5 381.1 58.5 373.2V211.1C58.5 126.8 126.8 58.5 211.2 58.5ZM460.3 446H699.2C711.9 446 718.3 461.4 709.3 470.4L470.4 709.3C461.4 718.3 446 711.9 446 699.2V460.3C446 452.4 452.4 446 460.3 446ZM373.2 775H134.3C121.6 775 115.2 759.6 124.2 750.6L363.1 511.7C372.1 502.7 387.5 509.1 387.5 521.8V760.7C387.5 768.6 381.1 775 373.2 775ZM775 521.8V622.3C775 706.6 706.6 775 622.3 775H521.8C509.1 775 502.7 759.6 511.7 750.6L750.6 511.7C759.6 502.7 775 509.1 775 521.8ZM249.9 446H311.7C324.4 446 330.8 461.4 321.8 470.4L198.2 593.9C186.7 605.4 168.1 591.9 175.3 577.4L237 453.9C239.5 449 244.5 446 249.9 446ZM72.8 446H152.6C163.2 446 170.1 457.2 165.4 466.7L85.6 626.2C78.9 639.7 58.5 634.9 58.5 619.8V460.3C58.5 452.4 64.9 446 72.8 446Z" fill="#EF542B"/>
</svg>
