<svg xmlns="http://www.w3.org/2000/svg" viewBox="0 0 835.09 835.09"><defs><style>.cls-1{fill:#ef542b;}</style></defs><g id="Layer_2" data-name="Layer 2"><g id="Layer_1-2" data-name="Layer 1"><path class="cls-1" d="M73.58,388.3H152.4a86.3,86.3,0,0,0,77.19-47.71L359.9,80a14.29,14.29,0,0,0-12.78-20.68H212A152.67,152.67,0,0,0,59.29,212V374A14.29,14.29,0,0,0,73.58,388.3ZM60.09,212c0-83.74,68.13-151.87,151.87-151.87H347.12a13.49,13.49,0,0,1,12.06,19.53L228.87,340.24A85,85,0,0,1,152.4,387.5H73.58A13.5,13.5,0,0,1,60.09,374Z"/><path class="cls-1" d="M176.16,578.2c-7.25,14.5,11.43,28,22.89,16.49l123.5-123.5a14.29,14.29,0,0,0-10.1-24.4H250.69a14.29,14.29,0,0,0-12.78,7.9Zm74.53-130.61h61.76a13.49,13.49,0,0,1,9.54,23L198.48,594.13a13.11,13.11,0,0,1-9.38,4.07,14.26,14.26,0,0,1-11.83-6.71,12.86,12.86,0,0,1-.39-12.94l61.74-123.5A13.43,13.43,0,0,1,250.69,447.59Z"/><path class="cls-1" d="M471.19,322.55,710.05,83.69A14.29,14.29,0,0,0,700,59.29H561.36A114.56,114.56,0,0,0,446.79,173.86V312.45A14.29,14.29,0,0,0,471.19,322.55Zm-23.6-148.69A113.9,113.9,0,0,1,561.36,60.09H700a13.49,13.49,0,0,1,9.54,23L470.62,322a13.14,13.14,0,0,1-9.44,4,13.43,13.43,0,0,1-13.59-13.52Z"/><path class="cls-1" d="M820,0H188.35C84.49,0,0,84.49,0,188.35V820a15.11,15.11,0,0,0,15.09,15.09H646.74A188.36,188.36,0,0,0,835.09,646.74V15.09A15.11,15.11,0,0,0,820,0Zm14.29,646.74c0,103.58-84,187.55-187.55,187.55H15.09A14.29,14.29,0,0,1,.8,820V188.35C.8,84.77,84.77.8,188.35.8H820a14.29,14.29,0,0,1,14.29,14.29Z"/><path class="cls-1" d="M751.4,125,512.54,363.9a14.29,14.29,0,0,0,10.1,24.4H761.51A14.29,14.29,0,0,0,775.8,374V135.14A14.29,14.29,0,0,0,751.4,125ZM775,374a13.5,13.5,0,0,1-13.49,13.49H522.64a13.49,13.49,0,0,1-9.54-23L752,125.6a13.11,13.11,0,0,1,9.43-4A13.43,13.43,0,0,1,775,135.14Z"/><path class="cls-1" d="M751.4,512.54,512.54,751.4a14.29,14.29,0,0,0,10.1,24.4H623.13A152.67,152.67,0,0,0,775.8,623.13V522.64A14.29,14.29,0,0,0,751.4,512.54ZM775,623.13C775,706.87,706.87,775,623.13,775H522.64a13.49,13.49,0,0,1-9.54-23L752,513.1a13.12,13.12,0,0,1,9.44-4A13.43,13.43,0,0,1,775,522.64Z"/><path class="cls-1" d="M361.23,208.07,281.44,367.62a14.29,14.29,0,0,0,12.79,20.68H374A14.29,14.29,0,0,0,388.3,374V214.46C388.3,199.38,368,194.58,361.23,208.07ZM387.5,374A13.5,13.5,0,0,1,374,387.5H294.23A13.49,13.49,0,0,1,282.16,368l79.78-159.54a13,13,0,0,1,11.9-7.48c6.62,0,13.66,4.74,13.66,13.51Z"/><path class="cls-1" d="M363.9,512.54,125,751.4a14.29,14.29,0,0,0,10.1,24.4H374a14.29,14.29,0,0,0,14.29-14.29V522.64A14.29,14.29,0,0,0,363.9,512.54Zm23.6,249A13.5,13.5,0,0,1,374,775H135.14a13.49,13.49,0,0,1-9.54-23L364.47,513.1a13.14,13.14,0,0,1,9.44-4,13.43,13.43,0,0,1,13.59,13.52Z"/><path class="cls-1" d="M153.36,446.79H73.58a14.29,14.29,0,0,0-14.29,14.29V620.63c0,15.08,20.33,19.88,27.07,6.39l79.79-159.55A14.29,14.29,0,0,0,153.36,446.79ZM85.65,626.66a13,13,0,0,1-11.9,7.48c-6.62,0-13.66-4.74-13.66-13.51V461.08a13.5,13.5,0,0,1,13.49-13.49h79.78a13.49,13.49,0,0,1,12.07,19.53Z"/><path class="cls-1" d="M700,446.79H461.08a14.29,14.29,0,0,0-14.29,14.29V700a14.29,14.29,0,0,0,24.4,10.1L710.05,471.19A14.29,14.29,0,0,0,700,446.79ZM470.62,709.49a13.13,13.13,0,0,1-9.43,4A13.43,13.43,0,0,1,447.59,700V461.08a13.5,13.5,0,0,1,13.49-13.49H700a13.49,13.49,0,0,1,9.54,23Z"/></g></g></svg>