<svg width="70" height="70" viewBox="0 0 70 70" fill="none" xmlns="http://www.w3.org/2000/svg">
<g clip-path="url(#clip0_102_27)">
<path d="M68.799 0H15.7552C7.05459 0 0 7.05459 0 15.7552V68.799C0 69.4625 0.537493 70 1.20096 70H54.2448C62.9454 70 70 62.9454 70 54.2448V1.20096C70 0.537493 69.4625 0 68.799 0ZM47.081 4.91302H58.7211C59.7876 4.91302 60.3251 6.20636 59.5693 6.96221L39.5057 27.0258C38.7499 27.7816 37.4565 27.2442 37.4565 26.1776V14.5375C37.4565 9.22136 41.7648 4.91302 47.081 4.91302ZM31.3425 32.5435H24.6407C23.7504 32.5435 23.171 31.6029 23.5657 30.805L30.2675 17.4097C30.8302 16.2759 32.5435 16.6791 32.5435 17.9472V31.3425C32.5435 32.006 32.006 32.5435 31.3425 32.5435ZM65.087 11.2789V31.3425C65.087 32.006 64.5495 32.5435 63.886 32.5435H43.8224C42.7558 32.5435 42.2184 31.2502 42.9742 30.4943L63.0378 10.4307C63.7936 9.67486 65.087 10.2124 65.087 11.2789ZM17.7373 4.91302H29.0918C29.982 4.91302 30.5615 5.85363 30.1668 6.65147L19.2154 28.5375C17.9892 30.9898 15.4781 32.5435 12.7319 32.5435H6.11398C5.45051 32.5435 4.91302 32.006 4.91302 31.3425V17.7289C4.91302 10.6491 10.6491 4.91302 17.7373 4.91302ZM38.6575 37.4565H58.7211C59.7876 37.4565 60.3251 38.7499 59.5693 39.5057L39.5057 59.5693C38.7499 60.3251 37.4565 59.7876 37.4565 58.7211V38.6575C37.4565 37.994 37.994 37.4565 38.6575 37.4565ZM31.3425 65.087H11.2789C10.2124 65.087 9.67486 63.7936 10.4307 63.0378L30.4943 42.9742C31.2502 42.2184 32.5435 42.7558 32.5435 43.8224V63.886C32.5435 64.5495 32.006 65.087 31.3425 65.087ZM65.087 43.8224V52.2627C65.087 59.3425 59.3425 65.087 52.2627 65.087H43.8224C42.7558 65.087 42.2184 63.7936 42.9742 63.0378L63.0378 42.9742C63.7936 42.2184 65.087 42.7558 65.087 43.8224ZM20.9874 37.4565H26.1776C27.2442 37.4565 27.7816 38.7499 27.0258 39.5057L16.6455 49.8776C15.6797 50.8434 14.1176 49.7097 14.7223 48.4919L19.904 38.12C20.114 37.7085 20.5339 37.4565 20.9874 37.4565ZM6.11398 37.4565H12.8158C13.7061 37.4565 14.2855 38.3971 13.8908 39.195L7.18896 52.5903C6.62627 53.7241 4.91302 53.3209 4.91302 52.0528V38.6575C4.91302 37.994 5.45051 37.4565 6.11398 37.4565Z" fill="#EF542B"/>
</g>
<defs>
<clipPath id="clip0_102_27">
<rect width="70" height="70" fill="white"/>
</clipPath>
</defs>
</svg>
